<?xml version="1.0" encoding="utf-8"?>
<!-- Svg Vector Icons : http://www.onlinewebfonts.com/icon -->
<!DOCTYPE svg PUBLIC "-//W3C//DTD SVG 1.1//EN" "http://www.w3.org/Graphics/SVG/1.1/DTD/svg11.dtd">
<svg version="1.1" xmlns="http://www.w3.org/2000/svg" xmlns:xlink="http://www.w3.org/1999/xlink" x="0px" y="0px" viewBox="0 0 1000 1000" enable-background="new 0 0 1000 1000" xml:space="preserve">
<metadata> Svg Vector Icons : http://www.onlinewebfonts.com/icon </metadata>
<g><g transform="translate(0.000000,511.000000) scale(0.100000,-0.100000)"><path d="M6202.7,3725.4V2440.9h-300.4c-165.8,0-300.4-6.2-300.4-12.4c0-12.4,1241.1-2167.2,1261.8-2187.9c6.2-8.3,298.3,482.7,648.5,1087.7l636.1,1102.2l-321.1,6.2l-319.1,6.2v1282.5V5010h-652.6h-652.6V3725.4z"/><path d="M2069.3,4162.6c-99.4-45.6-143-91.2-186.5-194.8c-26.9-66.3-31.1-540.8-31.1-4261.9c0-3721.1,4.1-4195.6,31.1-4261.9c43.5-103.6,87-149.2,186.5-194.7c78.7-37.3,203-39.4,2616.8-39.4c2233.5,0,2542.2,4.2,2608.5,31.1c103.6,43.5,149.2,87,194.7,186.5c37.3,78.7,39.4,205.1,39.4,2693.4V729.5l-217.6-377.1L7093.6-24.7v-1781.8v-1781.8h-2393h-2393V-55.8v3532.6h1792.2H5892v362.6V4202H4023.1C2251.6,4202,2148.1,4199.9,2069.3,4162.6z M5249.7,3839.4v-134.7h-549.1h-549v134.7v134.7h549h549.1V3839.4z M4876.7-3924c157.5-107.7,203-259,126.4-418.5c-118.1-240.3-445.5-252.8-576-20.7c-91.2,157.5-45.6,329.4,116,437.2C4638.5-3861.8,4783.5-3861.8,4876.7-3924z"/></g></g>
</svg>