<?xml version="1.0" encoding="utf-8"?>
<!-- Svg Vector Icons : http://www.onlinewebfonts.com/icon -->
<!DOCTYPE svg PUBLIC "-//W3C//DTD SVG 1.1//EN" "http://www.w3.org/Graphics/SVG/1.1/DTD/svg11.dtd">
<svg version="1.1" xmlns="http://www.w3.org/2000/svg" xmlns:xlink="http://www.w3.org/1999/xlink" x="0px" y="0px" viewBox="0 0 1000 1000" enable-background="new 0 0 1000 1000" xml:space="preserve">
<metadata> Svg Vector Icons : http://www.onlinewebfonts.com/icon </metadata>
<g><path d="M746.8,455.1c14.5,7.1,38.6,7.8,53.5,1.6L979,382.3c14.9-6.2,14.6-15.6-0.6-20.9L529.1,206.4c-15.3-5.3-40.3-5.3-55.6,0L21.6,361.5c-15.3,5.2-15.6,14.6-0.6,20.7l181.2,74.6c14.9,6.2,39,5.4,53.6-1.7c0,0,113-55.4,245.1-55.4C633.2,399.7,746.8,455.1,746.8,455.1z"/><path d="M102.3,586.2h47.3v141.9h-47.3V586.2z"/><path d="M116,405.7H136v250.2H116V405.7L116,405.7z"/><path d="M727.9,534.6c0-35.2-101.7-77.3-227.1-77.3c-125.4,0-227.1,42.1-227.1,77.3c0,0.4,0,0.9,0.1,1.3h-0.1v218.8c0,23.7,101.7,42.9,227.1,42.9c125.4,0,227.1-19.2,227.1-42.9V535.9h-0.1C727.9,535.5,727.9,535.1,727.9,534.6z M683.9,756.4c-1,1.9-3.2,2.8-5.1,3.5c-0.2,0.1-0.3,0.1-0.5,0.2c-0.8,0.2-1.6,0.4-2.5,0.6c0,0-0.1,0-0.1,0c0,0,0,0,0,0c-8.5,2.1-19,4.2-32,6.3c-39.8,6.3-90.5,9.8-142.9,9.8c-52.4,0-103.1-3.5-142.9-9.8c-14.4-2.3-25.8-4.7-34.7-7c-0.1,0-0.3-0.1-0.4-0.1c-1.9-0.8-4.1-1.6-5.1-3.5c-0.8-1.5-0.6-3.6,0.8-4.8c1.3-1.1,2.8-1.7,4.4-2.2c8.9-2.3,20.4-4.7,34.9-7c39.8-6.3,90.5-9.8,142.9-9.8c52.4,0,103.1,3.5,142.9,9.8c14,2.2,25.1,4.5,33.9,6.7l0,0c2,0.5,4,1.1,5.5,2.5C684.5,752.8,684.7,754.9,683.9,756.4z"/></g>
</svg>