<?xml version="1.0" encoding="utf-8"?>
<!-- Svg Vector Icons : http://www.onlinewebfonts.com/icon -->
<!DOCTYPE svg PUBLIC "-//W3C//DTD SVG 1.1//EN" "http://www.w3.org/Graphics/SVG/1.1/DTD/svg11.dtd">
<svg version="1.1" xmlns="http://www.w3.org/2000/svg" xmlns:xlink="http://www.w3.org/1999/xlink" x="0px" y="0px" viewBox="0 0 1000 1000" enable-background="new 0 0 1000 1000" xml:space="preserve">
<metadata> Svg Vector Icons : http://www.onlinewebfonts.com/icon </metadata>
<g><path d="M633.6,544.5c12.3,0,22.3-10,22.3-22.3c0-6.1-2.5-11.7-6.5-15.7L515.7,372.9c-4-4-9.6-6.5-15.7-6.5c-6.1,0-11.7,2.5-15.7,6.5L350.6,506.5c-4,4-6.5,9.6-6.5,15.7c0,12.3,10,22.3,22.3,22.3c6.2,0,11.7-2.5,15.7-6.5l95.6-95.6v525.3c0,12.3,10,22.3,22.3,22.3s22.3-10,22.3-22.3V442.4l95.6,95.6C621.9,542.1,627.5,544.5,633.6,544.5 M855.5,295.5c0.4-6,0.9-12.1,0.9-18.2C856.4,129.7,736.7,10,589.1,10c-102.8,0-191.8,58-236.6,143.1c-16.6-6-34.3-9.4-53-9.4c-86.1,0-155.9,69.8-155.9,155.9c0,11.2,1.2,22.1,3.5,32.6C67.5,358.7,10,433.7,10,522.3C10,633,99.7,722.7,210.5,722.7h200.5c12.3,0,22.3-10,22.3-22.3c0-12.3-10-22.3-22.3-22.3H210.5c-86,0-155.9-69.9-155.9-155.9c0-67.2,42.8-126.5,106.7-147.8l37.8-12.6l-8.3-39c-1.7-7.8-2.5-15.7-2.5-23.4c0-61.4,50-111.4,111.4-111.4c12.7,0,25.4,2.3,37.8,6.8l36.5,13.2l18.1-34.4c38.7-73.6,114.3-119.3,197.1-119.3c122.8,0,222.7,99.9,222.7,222.7c0,3.9-0.3,7.7-0.6,11.5l-0.3,3.8l-2,31.3l28.8,12.4c65.4,28.2,107.7,92.5,107.7,163.6c0,98.2-79.9,178.2-178.2,178.2H589.1c-12.3,0-22.3,10-22.3,22.3c0,12.3,10,22.3,22.3,22.3h178.2C890.3,722.7,990,623,990,500C990,408.3,934.6,329.6,855.5,295.5"/></g>
</svg>